<svg version="1.0" xmlns="http://www.w3.org/2000/svg" width="346.667" height="346.667" viewBox="0 0 260 260"><path d="M0 130v130h260V0H0v130zm215 19c0 2.4-2.9 3.8-4 2-1.2-1.9-.1-4 2.1-4 1.2 0 1.9.7 1.9 2zM76.9 165.3c3 8.3 5.6 15.8 5.9 16.4.2.8-.4 1.3-1.5 1.3-1.4 0-2.3-1.1-3.2-4l-1.2-4H61.3l-1.2 4c-.8 2.9-1.7 4-3.1 4-1.8 0-1.6-.9 2.1-11.3 2.3-6.1 4.7-13 5.5-15.2.8-2.2 1.6-4.6 1.9-5.3.2-.6 1.5-1.2 2.7-1.2 2.1 0 2.9 1.7 7.7 15.3zm29.4-6.3c1.4 1.1 2.8 2 3.1 2 .3 0 .6-.9.6-2s.7-2 1.5-2c1.3 0 1.5 2.4 1.5 15.2 0 13.4-.2 15.7-2 18.5-2.4 4-7.7 5.6-13.5 4.3-5.4-1.2-11.3-8-7-8 .9 0 2.6 1.2 3.9 2.6 1.8 2.1 3.1 2.7 6.5 2.7 5.8 0 8.2-2.6 8.9-9.3l.5-5.1-3.8 2.5c-2.1 1.4-5.1 2.6-6.7 2.6-11.5 0-16.7-15.9-7.7-23.4 3.9-3.3 10.4-3.6 14.2-.6zm35.3 1.4c2.6 2.6 3.4 4.2 3.4 7v3.6h-10.5c-11.9 0-12.9.8-7.6 6.1 3.8 3.8 8.8 4 12.1.4 1.3-1.4 3.2-2.5 4.2-2.5 1.6 0 1.7.3.8 2.1-1.6 2.9-7 5.9-10.8 5.9-3.6 0-8.1-2-10.1-4.4-2.1-2.5-3.1-8.8-2-12.8 1.4-5.5 5.9-8.8 12.1-8.8 4.4 0 5.4.4 8.4 3.4zm14.4-1.8c0 1.4.2 1.4 2.2 0 3.5-2.5 10.2-2 13.5.8 2.7 2.3 2.8 2.8 3.1 13 .4 10.2.3 10.6-1.7 10.6s-2.1-.5-2.1-9.5c0-11-1.4-13.5-7.5-13.5s-7.5 2.5-7.5 13.5c0 8.8-.1 9.5-2 9.5s-2-.7-2-13 .1-13 2-13c1.1 0 2 .7 2 1.6zm44.9 1c3.2 2.7 4.1 5.4 1.8 5.4-.8 0-2.4-1.1-3.7-2.5-2.5-2.7-7.5-3.4-10.9-1.5-2.7 1.4-4.4 6.5-3.8 10.7 1.3 7.8 9.1 11 14.3 5.8 2.2-2.3 5.4-3.4 5.4-1.9 0 1.7-2.4 4.6-5 5.9-5.2 2.7-12.4 1.4-15.9-2.9-2.1-2.5-3.1-8.8-2-12.8 2.2-8.4 13.1-11.8 19.8-6.2zM215 170c0 12.3-.1 13-2 13s-2-.7-2-13 .1-13 2-13 2 .7 2 13zm25.3-11c1.4 1.1 2.8 2 3.1 2 .3 0 .6-.9.6-2s.7-2 1.5-2c1.3 0 1.5 2.1 1.5 13s-.2 13-1.5 13c-.9 0-1.5-.9-1.5-2.5v-2.4l-3.6 2.4c-2 1.4-5.1 2.5-6.9 2.5-11.1 0-16.2-16-7.4-23.4 3.9-3.3 10.4-3.6 14.2-.6z"/><path d="M68 157.5c-1.4 3.5-5 13.6-5 14.2 0 .1 2.7.3 6.1.3 7 0 6.9.4 2.5-11.3l-2.4-6.2-1.2 3zm26.1 4.9C88.3 168.6 92 180 100 180c9.3 0 13.3-13.2 5.6-18.5-3.2-2.3-8.9-1.9-11.5.9zm34.1-1.7c-1.1.4-4.2 5.4-4.2 6.8 0 .3 4 .5 8.9.5h9l-1.1-3c-.5-1.7-1.8-3.5-2.8-4-1.9-1-7.6-1.2-9.8-.3zm99.9 1.7c-5.8 6.2-2.1 17.6 5.9 17.6 9.3 0 13.3-13.2 5.6-18.5-3.2-2.3-8.9-1.9-11.5.9z"/></svg>