<svg version="1.0" xmlns="http://www.w3.org/2000/svg" width="346.667" height="346.667" viewBox="0 0 260 260"><path d="M35.6 13.9c-.2.3-.4 19.6-.4 42.9V99h21.1l-.5-30.3-.5-30.2 3.4 12c1.9 6.6 4.2 14.9 5.2 18.5 1 3.6 3.3 11.8 5.1 18.2L72.3 99h5.9c5.3 0 5.8.2 5.9 2.2 0 1.3.1 20.6.1 43.1l.1 40.7h20.9l-.4-30.2c-.3-24.6-.2-29.4.8-25.7.6 2.4 3.3 11.8 5.9 20.9 2.6 9.1 5.8 20.7 7.2 25.8l2.6 9.2h22.4l7.3-25.8c3.9-14.1 7.7-27.7 8.4-30.2 1.2-3.9 1.3-.4 1.2 25.8l-.2 30.2H182V99.1l-15.7.2-15.7.2-8.6 30.2c-8.1 28.2-8.7 30-9.8 27-.6-1.8-3.2-10.4-5.7-19.2-2.6-8.8-5.1-17.4-5.7-19-.5-1.7-1.1-3.7-1.3-4.5-1.4-5.2-3.4-11.8-4-13.3-.6-1.5.1-1.7 8.4-1.7h9.1V13.1l-15.7.2-15.7.2-8.3 29c-4.6 15.9-8.5 29.4-8.7 30-.5 1.5-1 0-12.4-39l-5.9-20-15.1-.1c-8.4-.1-15.4.1-15.6.5zm75.9 54.3c-.2 16.1-.3 29.7-.4 30.3-.1.9-14.8 1.1-15.7.3-.2-.2.6-3.5 1.6-7.3C100.9 77 111.5 39 111.6 39c.1 0 0 13.2-.1 29.2zm77.2 116c-9.3 1.2-17.4 6-22.4 13.3-1.8 2.6-2.5 4.6-4 10.5-.2.8-.4 4.9-.5 9.1-.1 11.2 2.3 18.1 8.7 24.4 7 7 11.6 8.5 25.2 8 5.9-.2 11.5-.5 12.3-.8.8-.2 3.2-.7 5.3-1.2 2-.4 3.7-1.2 3.7-1.9.1-2.4.2-30.2.1-32.1-.1-2-.7-2-13.6-2-7.4 0-13.5.2-13.6.5-.1.7-.1 9.2 0 11.2.1 1.5 1.1 1.8 5.6 1.8h5.5v4.9c0 5.5-.4 5.9-7.3 5.6-9.1-.3-14.2-7.1-14-18.5.2-11.4 4.3-17.3 12.9-18.6 4.1-.6 12.3.4 16.5 2.1 1.3.5 2.2-.8 4.2-5.7 3.1-7.5 2.8-8-6.7-9.8-8.4-1.6-11-1.7-17.9-.8z"/></svg>