<svg version="1.0" xmlns="http://www.w3.org/2000/svg" width="346.667" height="346.667" viewBox="0 0 260 260"><path d="M49.9 68.1c-.6.3 1.5 7.3 4.6 16 4.5 12.2 12 32.7 19.3 52.9.3.8 4 10.7 8.1 22l7.6 20.5h26l7.1-18.5c3.9-10.2 7.4-19.4 7.8-20.5.5-1.1 3.8-9.8 7.4-19.3 3.9-10.3 6.8-16.8 7.2-16 .4.7 6.9 17.8 14.5 38l13.8 36.8h25.5l1-2.8c.5-1.5 9.6-26.1 20.2-54.7s19.3-52.6 19.4-53.4c.1-1.1-2.2-1.4-10.7-1.5-6 0-11.2.1-11.7.4-.7.5-4.6 10.7-20.5 54.5-4.7 13.2-9 24.9-9.5 26l-.8 2-.7-2c-1.6-4.5-4.7-13.1-5.5-15-.5-1.1-5.7-15.5-11.5-32-5.9-16.5-11.3-30.9-12-32-1.1-1.8-2.2-2-11.4-1.9-5.6.1-10.6.5-11.1 1s-6.5 16.2-13.5 34.9c-6.9 18.7-13 34.9-13.5 36-.5 1.1-1.4 3.7-2.1 5.7-.7 2.1-1.6 3.8-1.9 3.8-.3 0-2-4.2-3.7-9.3-1.7-5-5.2-15.1-7.8-22.2-2.6-7.2-5.1-14.1-5.5-15.5-1.1-3.2-8.3-23-10.7-29.4l-1.8-5H62.1c-6.2-.1-11.7.2-12.2.5zm-14.7 35.6c-.7.3-1.9 1.8-2.7 3.3-1.8 3.5-.8 7 2.7 9.4 3.3 2.4 6.6 2 9.8-1.3 3.4-3.3 3.3-7.4-.1-10.4-2-1.6-6.9-2.2-9.7-1zM33.5 127c-.2.3-.4 12.3-.4 26.8L33 180h12.7l-.1-26.7-.1-26.8h-5.8c-3.2-.1-6 .2-6.2.5z"/></svg>