<svg version="1.0" xmlns="http://www.w3.org/2000/svg" width="346.667" height="346.667" viewBox="0 0 260 260"><path d="M110.8 34.5c-.2.2-2.3.4-4.8.6-2.5.1-5.1.5-5.7.7-1 .3-1.3 9.3-1.3 40.2v39.8l2.8.5c1.5.4 8.3.5 15.2.3 14.4-.4 21.5-2.5 26.8-7.8 8.8-9.2 8.3-23.2-1.3-31.6-1.9-1.8-4.7-3.5-6-3.8-2.5-.6-2.4-.7 1.8-3.4 8.9-5.6 11.4-18.4 5.3-26.4-3.1-4.1-8.7-7.3-14.3-8.2-4.2-.7-18-1.3-18.5-.9zM129.5 45c4.6 2.2 6.5 5.3 6.5 10.6 0 8.8-6.4 13.3-18.7 13.4-5.1 0-7.3-.4-7.4-1.3-.4-3.4-.5-23.3-.2-24 .3-.4 3.8-.7 8-.7 5.6 0 8.8.5 11.8 2zm1 35c5.4 2.7 7.5 6 8 12.2.7 10-5.7 15.5-18.8 16.2-10.6.6-10.2 1.3-10.2-16.3V76.9l8.5.6c5.4.3 9.9 1.2 12.5 2.5zm34.9 37.6c-12.7 2.1-21.2 8.3-26 18.6-2.5 5.5-2.9 7.5-2.9 15.8 0 8.4.3 10.2 2.9 15.8 5.3 11.6 15.2 17.4 29.5 17.6 9 .1 14.6-.6 19.7-2.4l3-1.1-.2-15.7c-.1-8.6-.2-15.9-.3-16.2-.1-.5-18.5-.5-21.4-.1-.5 0-.7 1.6-.5 3.3l.3 3.3h13l.3 10.2c.3 11.9.6 11.5-11.2 11.5-9.2 0-14.5-2.2-19.6-8-4.9-5.5-6.8-11.5-6.5-20.2.4-10.9 5-18.6 14-23.3 3.2-1.7 5.8-2.1 13-2.1 5-.1 10.4.5 12.1 1.1 3.1 1.1 3.2 1 3.8-1.9.3-1.7.6-3.4.6-3.9 0-.7-6.9-2.3-13.6-3.1-1.7-.2-6.2.1-10 .8zm-152.4.6c0 .9 2.2 5.2 7.8 15 1.2 2 4.5 8.3 7.5 14l5.4 10.3-.2 13.7-.2 13.8h4.4c2.7 0 4.3-.5 4.4-1.3 0-.6.1-7.3.2-14.7l.2-13.5 10.8-18.3c5.9-10 10.6-18.6 10.3-19-.3-.5-2.4-.8-4.6-.8l-4.2.1-8.3 16.1-8.2 16-7.9-15.8c-4.3-8.7-8.1-15.9-8.4-15.9-2.3-.7-9-.4-9 .3zm75.7 18.3c-2.7.7-6.1 2.1-7.5 3.2-10.7 7.9-13.1 26.2-5.1 37.3 10.1 13.9 33.6 10.7 40.5-5.5 2.1-5 2.2-16.7.1-21.6-4.5-10.9-16.1-16.5-28-13.4zm13.6 8c4 2.6 7 9.7 6.9 16.5-.1 13.1-9.7 21.4-20 17.1-7.1-3-10.9-14.3-8.1-24.4 1.2-4.5 6.1-10.4 9.2-11 3.7-.9 9.3 0 12 1.8zm118.8-7.4c-6.3 2-6.4 2-5.5 5.3.7 3.1.3 3 6.5 1 6.6-2.2 12.7-1.4 15.6 2.1 2.8 3.2 3.1 8.5.6 8.5-8.7.2-18.2 3.2-22.1 7-7.8 7.4-6 19.7 3.4 23.6 6 2.5 14 1.2 18.5-3l2.7-2.5.6 3c.5 2.6.9 2.9 4.3 2.9h3.8l-.3-16.7c-.2-18.9-1-22.9-5.3-27.7-4.5-5.1-13.6-6.5-22.8-3.5zm19 24.5c1.1 11.6-1.9 16.2-11.5 17.8-2.2.4-3.5-.1-5.7-2.4-6-6-2.2-13.9 7.6-16 5.4-1.1 9.5-.8 9.6.6z"/></svg>